# xmcd
#
# Track frame offsets: 
#        150
#        14739
#        31757
#        44585
#
# Disc length: 848 seconds
#
# Revision: 0
# Processed by: cddbd v1.5.2PL0 Copyright (c) Steve Scherf et al.
# Submitted via: ExactAudioCopyFreeDBPlugin 1.0
#
DISCID=2d034e04
DTITLE=Cornershop - The Battle of New Orleans
DYEAR=1900
DGENRE=
TTITLE0=Houston Hash
TTITLE1=Soul School (School Dinners mix)
TTITLE2=The Battle of New Orleans
TTITLE3=Lynndie England
EXTD=
EXTT0=
EXTT1=
EXTT2=
EXTT3=
PLAYORDER=
